<?xml version="1.0" encoding="UTF-8"?>
<svg width="128" height="128" viewBox="0 0 128 128" xmlns="http://www.w3.org/2000/svg">
  <!-- Paper -->
  <rect x="32" y="24" width="64" height="32" rx="3" fill="#ffffff" stroke="#c0bfbc" stroke-width="2"/>
  
  <!-- Typed text lines -->
  <line x1="40" y1="34" x2="72" y2="34" stroke="#5e5c64" stroke-width="2" stroke-linecap="round"/>
  <line x1="40" y1="42" x2="80" y2="42" stroke="#5e5c64" stroke-width="2" stroke-linecap="round"/>
  <line x1="40" y1="50" x2="64" y2="50" stroke="#5e5c64" stroke-width="2" stroke-linecap="round"/>
  
  <!-- Paper roller -->
  <rect x="24" y="52" width="80" height="10" rx="5" fill="#77767b"/>
  <rect x="24" y="62" width="80" height="3" rx="1.5" fill="#5e5c64"/>
  
  <!-- Typewriter body -->
  <rect x="8" y="62" width="114" height="60" rx="6" fill="#62a0ea"/>
  
  <!-- Keyboard keys - Row 1 -->
  <rect x="16" y="74" width="12" height="10" rx="1.5" fill="#f6f5f4"/>
  <rect x="16" y="84" width="12" height="1" fill="#deddda"/>
  
  <rect x="32" y="74" width="12" height="10" rx="1.5" fill="#f6f5f4"/>
  <rect x="32" y="84" width="12" height="1" fill="#deddda"/>
  
  <rect x="48" y="74" width="12" height="10" rx="1.5" fill="#f6f5f4"/>
  <rect x="48" y="84" width="12" height="1" fill="#deddda"/>
  
  <rect x="64" y="74" width="12" height="10" rx="1.5" fill="#f6f5f4"/>
  <rect x="64" y="84" width="12" height="1" fill="#deddda"/>
  
  <rect x="80" y="74" width="12" height="10" rx="1.5" fill="#f6f5f4"/>
  <rect x="80" y="84" width="12" height="1" fill="#deddda"/>
  
  <rect x="96" y="74" width="12" height="10" rx="1.5" fill="#f6f5f4"/>
  <rect x="96" y="84" width="12" height="1" fill="#deddda"/>
  
  <!-- Keyboard keys - Row 2 -->
  <rect x="22" y="88" width="12" height="10" rx="1.5" fill="#f6f5f4"/>
  <rect x="22" y="98" width="12" height="1" fill="#deddda"/>
  
  <rect x="38" y="88" width="12" height="10" rx="1.5" fill="#f6f5f4"/>
  <rect x="38" y="98" width="12" height="1" fill="#deddda"/>
  
  <rect x="54" y="88" width="12" height="10" rx="1.5" fill="#f6f5f4"/>
  <rect x="54" y="98" width="12" height="1" fill="#deddda"/>
  
  <rect x="70" y="88" width="12" height="10" rx="1.5" fill="#f6f5f4"/>
  <rect x="70" y="98" width="12" height="1" fill="#deddda"/>
  
  <rect x="86" y="88" width="12" height="10" rx="1.5" fill="#f6f5f4"/>
  <rect x="86" y="98" width="12" height="1" fill="#deddda"/>
  
  <rect x="102" y="88" width="12" height="10" rx="1.5" fill="#f6f5f4"/>
  <rect x="102" y="98" width="12" height="1" fill="#deddda"/>
  
  <!-- Space bar -->
  <rect x="42" y="102" width="44" height="8" rx="1.5" fill="#f6f5f4"/>
  <rect x="42" y="110" width="44" height="1" fill="#deddda"/>
</svg>
